/* XPM */
static char *_350f350dd2848edbc8561ecf7483a5fJJkPrlF6msC4ZHl5[] = {
/* columns rows colors chars-per-pixel */
"40 40 241 2 ",
"   c #163C2D",
".  c #1A373A",
"X  c #0B373C",
"o  c #273A37",
"O  c #333832",
"+  c #77393C",
"@  c #50332C",
"#  c #344F1A",
"$  c #164637",
"%  c #1B5439",
"&  c #144B2E",
"*  c #24473B",
"=  c #334439",
"-  c #28573A",
";  c #28592B",
":  c #1C6635",
">  c #266437",
",  c #464939",
"<  c #44573A",
"1  c #57583B",
"2  c #745137",
"3  c #687332",
"4  c #676E3B",
"5  c #476F3B",
"6  c #123C41",
"7  c #04384E",
"8  c #2C2E57",
"9  c #723D45",
"0  c #1A4543",
"q  c #154D49",
"w  c #254745",
"e  c #285C49",
"r  c #335D44",
"t  c #375953",
"y  c #2E4D50",
"u  c #1A7048",
"i  c #286648",
"p  c #366745",
"a  c #387355",
"s  c #346E4E",
"d  c #3B5961",
"f  c #4F524C",
"g  c #674E48",
"h  c #7A5A47",
"j  c #795950",
"k  c #715149",
"l  c #446948",
"z  c #517351",
"x  c #6F6C4F",
"c  c #796649",
"v  c #687646",
"b  c #7F6858",
"n  c #707442",
"m  c #567267",
"M  c #83473B",
"N  c #89593C",
"B  c #9C533B",
"V  c #965A3C",
"C  c #8D4A32",
"Z  c #A75A3C",
"A  c #99663A",
"S  c #876D35",
"D  c #A8693B",
"F  c #B96839",
"G  c #B6743C",
"H  c #B86C26",
"J  c #D47731",
"K  c #EB7C2A",
"L  c #E67D33",
"P  c #FB7F36",
"I  c #F07C2F",
"U  c #8C4E4C",
"Y  c #8B5546",
"T  c #975747",
"R  c #975654",
"E  c #A35C4A",
"W  c #A35B54",
"Q  c #87624C",
"!  c #93624B",
"~  c #9C6845",
"^  c #967C46",
"/  c #986A53",
"(  c #88734C",
")  c #AD6A43",
"_  c #A86648",
"`  c #BD6D45",
"'  c #B46B4B",
"]  c #BB6C4C",
"[  c #B36848",
"{  c #AA7446",
"}  c #B67342",
"|  c #B6724D",
" . c #BC724D",
".. c #B9784A",
"X. c #AA6C55",
"o. c #B46C53",
"O. c #BC6C54",
"+. c #B86854",
"@. c #B57353",
"#. c #BC7354",
"$. c #BB7459",
"%. c #B7765E",
"&. c #A7755A",
"*. c #B27162",
"=. c #C1664B",
"-. c #C2734D",
";. c #C4794F",
":. c #C36A55",
">. c #C27254",
",. c #C57657",
"<. c #D27053",
"1. c #3F953A",
"2. c #56943C",
"3. c #57AD3C",
"4. c #6B853B",
"5. c #3AA74E",
"6. c #47884C",
"7. c #56994B",
"8. c #438755",
"9. c #4E964F",
"0. c #49A44B",
"q. c #52A54C",
"w. c #59B84B",
"e. c #59A855",
"r. c #54B653",
"t. c #4AB04A",
"y. c #60A94D",
"u. c #5EC850",
"i. c #59C848",
"p. c #67CD48",
"a. c #6CC94C",
"s. c #8B8338",
"d. c #938338",
"f. c #BE8B32",
"g. c #D78736",
"h. c #CE8E33",
"j. c #EB8528",
"k. c #E99929",
"l. c #EC8437",
"z. c #F78737",
"x. c #FD9235",
"c. c #F28D2E",
"v. c #DAA73C",
"b. c #FDAD2C",
"n. c #FBA729",
"m. c #FAB42B",
"M. c #FFA432",
"N. c #FFAA32",
"B. c #FEAD3A",
"V. c #EDBD38",
"C. c #F9B638",
"Z. c #EDA737",
"A. c #FCC72D",
"S. c #FBC739",
"D. c #F8D33A",
"F. c #8C8645",
"G. c #978347",
"H. c #958252",
"J. c #8C8A57",
"K. c #BA8747",
"L. c #AF8856",
"P. c #A38266",
"I. c #B58C6D",
"U. c #BFB96B",
"Y. c #989A5A",
"T. c #D79942",
"R. c #C78559",
"E. c #CD8E4E",
"W. c #FF8946",
"Q. c #EC905F",
"!. c #DAA754",
"~. c #CEB250",
"^. c #E9BA4A",
"/. c #FABA4B",
"(. c #E5B14E",
"). c #C78764",
"_. c #CE9568",
"`. c #D69869",
"'. c #D99774",
"]. c #CE8D74",
"[. c #E5986F",
"{. c #D8A46A",
"}. c #D6A971",
"|. c #EBAA7C",
" X c #EEAA72",
".X c #F2AB74",
"XX c #DCCA5E",
"oX c #FEC142",
"OX c #FCCB44",
"+X c #FECC4D",
"@X c #FAC84B",
"#X c #FDD244",
"$X c #FED54E",
"%X c #FCD844",
"&X c #F9C654",
"*X c #FDDA57",
"=X c #EAD754",
"-X c #FAE34F",
";X c #FAE457",
":X c #F7F25A",
">X c #F4D561",
",X c #E7D16C",
"<X c #FEED6D",
"1X c #FEEA65",
"2X c #FCF665",
"3X c #FFED73",
"4X c #FFF676",
"5X c #607F84",
"6X c #7C9B96",
"7X c #899D9A",
"8X c #A9968B",
"9X c #889FA5",
"0X c #94BEA6",
"qX c #B2AEB0",
"wX c #B3B399",
"eX c #EDAB81",
"rX c #EAB486",
"tX c #A4C2B3",
"yX c #C4BCCB",
"uX c #BAC9CC",
"iX c #CAD3D4",
"pX c #D5E4DF",
"aX c #E3E4DC",
"sX c #DBD9E6",
"dX c #E4DFED",
"fX c #E4E4EA",
"gX c #E5E5EA",
"hX c #FDFBEE",
"jX c #F5F9EC",
"kX c #E9E6F5",
"lX c #E6E8F3",
"zX c #EDFAF7",
"xX c #FCF5F3",
"cX c #F4FCF6",
"vX c #FCFDF5",
"bX c #FCF5FC",
"nX c #F5FDFD",
"mX c #FEFEFE",
"MX c #F4F5F7",
"NX c #ECF8EC",
"BX c #DAEAE9",
/* pixels */
"mXmXmXmXmXmXmXmXmXmXmXmXmXmXmXmXmXmXmXmXmXmXmXmXmXmXmXmXmXmXmXmXmXmXmXmXmXmXmXmX",
"mXmXmXmXmXmXmXmXmXmXmXmXmXmXmXmXmXmXmXmXmXmXmXmXmXmXmXmXmXmXmXmXmXmXmXmXmXmXmXmX",
"mXmXmXmXmXmXmXmXmXmXmXmXmXmXmXmXmXmXmXmXmXmXmXmXmXmXmXmXmXmXmXmXmXmXmXmXmXmXmXmX",
"mXmXmXmXmXmXmXmXmXmXmXmXmXmXmXmXmXmXmXmXmXmXmXmXmXmXmXmXmXmXmXmXmXmXmXmXmXmXmXmX",
"mXmXmXmXmXmXmXmXmXmXmXmXmXmXmXmXmXmXmXmXmXmXmXmXmXmXmXmXmXmXmXmXmXmXmXmXmXmXmXmX",
"mXmXmXmXmXmXmXmXmXmXmXmXmXmXmXmXmXmXmXmXmXmXmXmXmXmXmXmXmXmXmXmXmXmXmXmXmXmXmXmX",
"mXmXmXmXmXmXmXmXmXmXmXmXmXmXmXmXmXmXmXmXmXmXmXmXmXmXmXmXmXmXmXmXmXmXmXmXmXmXmXmX",
"mXmXmXmXmXmXmXmXmXmXmXmXmXmXmXmXmXmXmXmXmXmXmXmXmXmXmXmXmXmXmXmXmXmXmXmXmXmXmXmX",
"vXmXmXcXvXmXmXvXvXvXcXmXmXbXmXvXmXmXmXmXmXnXmXmXmXmXmXcXmXmXvXmXbXvXnXmXbXvXvXmX",
"mXmXmXmXmXbXmXmXbXmXbXxXbXmXmXmXmXmXmXcXmXmXMXmXmXbXmXmXmXmXvXbXmXmXnXmXmXvXmXnX",
"mXmXmXmXmXvXcXmXnXzXmXmXmXcXmXnXmXmXmXvXxXmXmXmXvXmXmXvXmXnXmXmXmXcXmXbXmXvXmXmX",
"zXmXhXvXmXcXvXmXhXcXNXmXmXbXvXmXcXmXnXmXmXmXmXmXvXmXmXmXvXmXnXmXmXmXbXbXmXxXbXmX",
"mXjXvXmXmXmXzXnXfX9XcXxXbXnXxXnXmXnXnXnXnXlXmXnXnXzXmXxXmXnXnXmXbXcXmXvXnXmXvXcX",
"mXbXvXMXbXwXS L.l 7 z Y h x c j Q h k 8Xb Q h Q h b k h 2 8Xb S x a 0XcXnXmXbXjX",
"mXmXjXmXfXd.$XC.! . f ' =.) ` =.D  .[ C B _ | [ ] D [ ` ] M B l.s.7.a zXmXmXbXmX",
"mXmXvXnXfXG.oXM.K < $ T >.@.) O.>.[ +.C o.#.' ] +.| ) ] $.U E j./.# w yXxXmXmXnX",
"mXmXxXmXgXF.1XV.z.c i c [._._.Q.`._.`._ _.`.!.].`.`._.`.`./ ).z.V.1 $ 6XmXmXmXvX",
"mXmXcXmXgXF.1XOXW.( u J.eX|.rX}. X X.XX.'.eX X|.eX|.eX|..X&.'.x.C.U.& qXcXmXcXmX",
"mXbXmXmXgXF.*XoXz._ P.`.Q.`.].[.'.'.`./ {.{.[.`.`._._._.'.~ _.l.n.~.# 7XmXmXmXmX",
"mXmXmXmXgXG.D.B.l.B _.;...} +.D U V V Y T C V X.-.-.>.` ;.Z ).l.n.@XJ.lXmXmXMXbX",
"nXcXmXnXkXG.S.c.F M X.B R E W U !.;X=XoX&X>X>XA T T T T T M X.Z c.S.d.lXmXvXmXmX",
"mXmXmXmXkXF.S.J H T.g.g.h.g.g.F XX:X<X^.!.*X-X^ h.T.g.h.g.g.g.J J D.^ fXvXmXvXmX",
"mXvXmXmXkX^ D.F ^.*X@XD.*X@X-XK.f.>XA + 9 T.$X{ OX+X#X%X$XOX%XV.F D.H.fXvXmXvXmX",
"mXmXmXvXdXF.D.` XX2X<X:X2X3X2X~.h.A.`.@ ~ OXC.@.2X<X1X:X<X<X4X,XG %X^ gXhXmXbXcX",
"cXmXmXmXfXd.#X} v.#XoX/.OX/.OXh.E.#X^.T.XX4XV.} OX/.oXoX&XS.OX!.G D.G.lXcXmXmXmX",
"mXnXmXvXfXG.OXH k.Z.N.N.b.N.m.J ~.%XV.OX$X;X;X/ m.N.b.b.N.b.m.k.H OX^ fXmXmXmXmX",
"mXnXmXvXfXH.+Xk.F ! ) A A _ ~ 2 XX:X*XOXS.*X4XA A E A A _ ! { Z g.$XH.aXmXbXmXmX",
"mXnXMXmXfXH.S.N.J R >.[ ' ] o.T K.K.K.G K...K.V _ +.[ D _ W ,.J C.S.G.aXmXcXmXmX",
"mXmXmXbXBXd.A.N.j.R E.| | #.#.' ~ B _ Y *.R Z o.-.O.| G ] _ ).j.b.A.G fXnXmXmXnX",
"mXvXbXbXgXF.OXM.K R `.#.o.O.o.O.o.#.#.V ).] ` ..O.O.o.' O.R ,.L b.D.F.fXmXxXmXnX",
"mXvXmXmXgXJ.&Xn.L U }.;.o.O.' o.%.] | T ].[ >.o.O.' @.O.#.! ).L B.~.n kXmXvXmXmX",
"mXmXmXcX7XO h.C.K Y {.R.+.>.G O.:.{ G B ].) ..O.O.| @.]  .Y ).L C.S < NXbXnXcXbX",
"mXxXhXmXqX7 > h.z.R {.R.] @.#.} O...' E P.l Q -.{ :.o...=.R I.L B.v.7.MXqXuXmXvX",
"mXnXnXvXiXq.4 Z.j.Y I.).#.' O.' :.D %.N * y %.$. .,.o.) ;.R R.K m.v.6.d i a sXMX",
"vXxXmXpXm Y.#XM.z.g < o.F -.O.$.@.*.=.Y $ > Q F ] ' %.D } E '.P n.D.4.w u > m m ",
"mXbXiXa 3.3 /.C.I f i e 5 c %.} G @.} 2 p z , @.:.Q X.,.<.N I.P c.&Xv * l p X % ",
"tXqXz u s p z T.H = i t s 0 j E h Y k , n +.T X.x ; , k / 1 p 2 x.4 q s % i y i ",
"w &   - w $ X o O 6   .   6 o o o w * o y @ , X o $ y O O o 0 o N - q % X & * w ",
"e * d % - 0 a 0.y % i $ r e 8.6.- X 8.e $ > $ 8.i & $ $ - r t > i ; & i 8 p % - ",
"w.q.i.i.e.2.u.p.5.y.w.q.w.t.u.p.t.2.a.t.7.u.9.p.e.q.0.0.u.w.y.u.t.3.q.w.6.w.q.w."
};
