/* XPM */
static char *_d69e62bbd8f4799ac3268e5bbbcffe1PyJxYMcKaLdq0mEN[] = {
/* columns rows colors chars-per-pixel */
"40 40 6 1 ",
"  c None",
". c #0E0F2C",
"X c #132243",
"o c #1A466B",
"O c #595652",
"+ c #10908E",
/* pixels */
"   .....++.++++++.....+++.............  ",
"  .oo++oooo.ooooo+++++oooo.oooo++++ooo. ",
" .ooo+oooooo.oooo++o++oooo..oooo++oooo. ",
" .oooooooooo..ooo+oo+oooooo.ooooo+ooooo.",
".oooooooooooo.ooo+ooooooooo..oooooooooo.",
".ooooooooooo..oooooooooooooo..ooooo...o.",
".oo....ooooo.oooooooooooooooo.oooo...X. ",
"...XXXX.oo...oooooooooooooooo.oo...XXX. ",
".XXXXXX....ooooooo...oooooooo.....XXXXX.",
".XXXXXXXX.ooooooo.+++..ooooooo..XXXXXXX.",
".XXXXXXX.......o.++++++........XXXXXXXX.",
".XXXXXXX.XXXXXX...++...XXXXXX.XXXXXXXXX.",
".XXXXXXX.XXXXXXXXX+XXXXXXX...XXXXXXXXXX.",
".XXXXXXX.XXXXXXXXXXXXXXX....XXXXXXXXXX. ",
".XXXXXXX.XXXXXXXXXXXXXXX...XXXXXXXXXX.  ",
".XXXXXXXX.........XXXXXX..XXXXXXXXXXX.  ",
".XXXXXXXXXX.........XXXX..XXXXXXXXXXX.  ",
".XXXXXXXXXX..XXXXXX.......XXXXXXXXXXXX. ",
".XXXXXXXXXX..XXXXXXX.....XXXXXXXXXXXXX. ",
".XXX.....XXX.XXXXXXXXXXX.XXXXXXXXXXXXX. ",
".XX.+++++.X.XXXXXXXXXXXX.XXX...XXXXXXX. ",
".XXX++++...XXXXXXXXXXXXX.XX......XXXX.  ",
"...XX++...XXXXXXXXXXXXXXX..++++....X.   ",
".XX.XX+.XXXXXXXXXXXXXXXX....+++..XX.    ",
" .X.XX.XXXXXXXXXXXXXXXX...+++X++.XX.    ",
"  .....XXXXXXXXXXXXXXXX...XX+XX+.XX.    ",
"  .XX...XXXXXXXXXXXXXX...XXXXXXXX...    ",
"  .XXX...XXXXXXXXXXXXX..XXXXXXXXXXX.    ",
"  .XXX+.......XXXXXXX...XXXXXXXXXX.     ",
"  .XXXX+..++++.XXXXXX..XXXXXXXXXXX.     ",
"   .XXX+.++++...XXXXX.XXXXXXXXXXXX.     ",
"   .XXXX++++..........XXXXXXXXXXXXX..   ",
"  .XXXXXXX+XXX.....XX.XXXXXXXXXXXXXXX.  ",
"  .XXXXXX+XXXXXXXXXXX.XXXXXXXXXXXXXXX.  ",
" .XXXXXXX+XXXXXXXXXXX.XXXXXXXXXXXXXXX.  ",
" .XXXXXXXXXXXXXXXXXXX..XXXXXXXXXXXXXXX. ",
"..XXOXXXXXXXXOOXXXXOXX...XXXOXXXOXXXXXX.",
"OOXXOOOXXXXXXOOXXXOOXXXOOXXXOOXOOXXXXXOO",
"OOOXXOOOXXXXOOOOXOOOOXOOOOXOOOOOOOXOXOOO",
"OOOXOOOOOXOOOOOOOOOOOXOOOOXOOOOOOOXOOOOO"
};
