/* XPM */
static char *e450ef3cd09d40498c3cff4b9ff128918ZkCYg84A36ErHj1[] = {
/* columns rows colors chars-per-pixel */
"40 40 9 1 ",
"  c None",
". c black",
"X c #050914",
"o c #0E0421",
"O c #0E0F2C",
"+ c #132243",
"@ c #5B537D",
"# c #D41E3C",
"$ c #928FB8",
/* pixels */
"                                        ",
"                                        ",
"                                        ",
"                                        ",
"                                        ",
"                                        ",
"                                        ",
"                                        ",
"                                        ",
"                 ........               ",
"              ...OO++++++.              ",
"             .OOOO+ooooo+.              ",
"            .OOO++oXXXXXo+.             ",
"           .OOO+++X@@@@@Xo+.            ",
"          .OOO+++oX@@@@@@Xo.            ",
"          .OOO++oX@@@$$$@Xo+.           ",
"          .OO++oOX@$$$$$$@Xo.           ",
"          .OO++oX@$$ooo$ooXo+.          ",
"         .OOO++oX@$$oo#$#oXo+.          ",
"         .OOO++oOX@$$$$o$$Xo.           ",
"         .OOO+++oOX@@$$$$Xo+.           ",
"         .OOO++++oOXX@oo$Xo.            ",
"        .OOO++++++oOOX$$Xo+.            ",
"       .OOOO+++++++oOOXXOo.             ",
"      .OOOO+++++++++oOOOo+.             ",
"     .OOOO+++++++++++ooo+.              ",
"     .OOOO++++++++++++o+.               ",
"    .OOOO+++++++++++++o.                ",
"    .OOOO++++++++++++o+.                ",
"   .OOOOO++++++++++++o+.                ",
"   .OOOO+++++++++++++o+.                ",
"   .OOOO+++++++++++++o++.               ",
"   .OOOO+++++++++++++o++.               ",
"   .OOOO+++++++++++++o+++.              ",
"   .OOOOO+++++++++++++o++.              ",
"  .OOOOOOO++++++++++++o++.              ",
"  .OOOOOOOOO++++++++++o+++.             ",
"  .OOOOOOOOOOOO++++++++o++.             ",
"  .OOOOOOOOOOOOOO++++++o++.             ",
"  .OOOOOOOOOOOOOOOOO+++o++.             "
};
