/* XPM */
static char *_3964426668541e9936d82d115892a61yQxW05L7foc2rTO8[] = {
/* columns rows colors chars-per-pixel */
"40 40 15 1 ",
"  c None",
". c #050914",
"X c #25082C",
"o c #3D1132",
"O c #73263D",
"+ c #5B537D",
"@ c #BD4035",
"# c #ED7B39",
"$ c #FFB84A",
"% c #5B6EE1",
"& c #639BFF",
"* c #5FCDE4",
"= c #928FB8",
"- c #B0FFF1",
"; c #C7D4E1",
/* pixels */
"                                        ",
"                                        ",
"                                        ",
"                                        ",
"                                        ",
"                                        ",
"                                        ",
"                                        ",
"                                        ",
"                                        ",
"                                        ",
"                 @@@#@                  ",
"                 @@#$@                  ",
"               %%%%%%%%%                ",
"               %&&&&-**%                ",
"               %&&&-***%                ",
"               %%%%%%%%%                ",
"                %&*-**%                 ",
"                %&*-**%                 ",
"                %&*-**%                 ",
"                %&*-**%                 ",
"                %&*-**%                 ",
"               %%**-**%%                ",
"              %&&*--****%               ",
"              %&&*--****%               ",
"            %%&OOOOOOOOO*%%             ",
"           %&ooOOOOOOOOOOO*%            ",
"           %&ooO=OOOOOO=OO*%            ",
"          %&oooOOO+;;;OOOOO*%           ",
"          %&XooOO=;;;;;OOOO*%           ",
"          %&XooOO=;;;;;oOOO*%           ",
"          %&XoooO=.==.=oooo*%           ",
"          %&Xooooo++++ooooo*%           ",
"          %&XXoo+o+oo+o=ooo*%           ",
"           %&XXooooooooooo*%            ",
"           %&XXooooooooooo*%            ",
"            %&XXXXooooooo*%             ",
"             %%%%%%%%%%%%%              ",
"             %*&&&**&&*&&%              ",
"              %%%%%%%%%%%               "
};
