/* XPM */
static char *_75ea74be69849e5d2131d6ace3d08a6gsH5ipwKBZ47EFoc[] = {
/* columns rows colors chars-per-pixel */
"40 40 13 1 ",
"  c None",
". c #050914",
"X c #0E0421",
"o c #0E0F2C",
"O c #220029",
"+ c #24142C",
"@ c #392946",
"# c #595652",
"$ c #5B537D",
"% c #9B0E3E",
"& c #D41E3C",
"* c #C7D4E1",
"= c #FAFFFF",
/* pixels */
"               ++=======+               ",
"         +++++++=*******=++++++         ",
"     ++++++++++o=*..*..*=++++++++++     ",
"    +++++XXoooo@$*.&*&.*$ooooXX+++++    ",
"    ++oooOO@@@@@$*******$@@@@OOooo++    ",
"   ++X@@@OO@@@@@o$*****$o@@@@OO@@@X++   ",
"   ++O@@@OO@@@@@O$o*o*O$@@@@@OO@@@O++   ",
"   ++O@@@Oo@@@@@O$@*@*O$@@@@@OO@@@O++   ",
"  ++oO@@@o$@@@@@Oo@o@oOo@@@@@OO@@@OX++  ",
"  ++OO@@@O$@@@@@oO@@@@O@@@@@@OO@@@OO++  ",
"  ++OO@@@O$@@@@@$O@@@@OO@@@@@OO@@@OO++  ",
"  ++OO@@@O$@@@@@$O@@@@OO@@@@@OO@@$OO++  ",
" ++oOO@@@OO@@@@@$O@@@@OO@@@@@OO@@$OO@++ ",
" ++oOO@@@OO$@@@@OO@@@@OO@@@@@OO@@$OO@++ ",
" ++oOO@@@OO$@@@@OO@@@@OO@@@@@OO@@$OO@++ ",
" ++oOO@@@OO$@@@@OO@@@@OO@@@@@OO@@$OO@++ ",
" ++oOO@@$OO@@@@@OO@@@@oO@@@@@oO@@@OO@++ ",
" ++oOO@@$OO@@@@@OO@@@@$$@@@@@$O@@@OO@++ ",
"++o@OO@@$Oo@@@@@OO@@@@OO@@@@@$O@@@oO@@++",
"++o@OO@@$o$@@@@@OO@@@$OO@@@@@$o@@@$O@@++",
"++o@OO@@$$O@@@@@OO@@@$OO@@@@@OO@@@$o@@++",
"++o@OO@@$OO@@@@@Oo@@@$OO$@@@@OO@@@OO@@++",
"++o@OO@@$OO@@@@@O$@@@$OO$@@@@OO@@@OO@@++",
"++o@OO@@$OO@@@@@O$@@@@OO$@@@@OO@@@Oo@@++",
"++o@OO@@$OO@@@@$O$@@@@OO$@@@@OO@@@OO@@++",
"++o@OO@@@OO@@@@$OO@@@@OO$@@@@OO@&&OO@@++",
"++o@OO@@@OO@@@@$OO@@@@OO@@@@@OO%&&&O@@++",
"++o@OO@@@OO@@@@@OO$@@@OO@@@@@OO%%&&O@@++",
"++o@OO@@@OO@@@@@OO$@@@oO@@@@@OOo%%oO@@++",
"++o@OO@@@OO@@@@@OO$@@@$O@@@@@OO@ooOO@@++",
"++o@OO@@@OO@@@@@OO$@@@$o@@@@@OO@@@OO@@++",
"++o@OO@@@OO@@@@@OO$@@@$$@@@@@OO@@@OO@@++",
"++o@OO@@@OO@@@@@OO$@@@$O@@@@@OO@@@OO@@++",
"++o@OO@@@Oo@@@@@OO$@@@OO@@@@@OO@@@OO@@++",
"++o@OO@@@O$@@@@@OO@@@@OO@@@@@OO@@@OO@@++",
"++o@oo@@@o$@@@@$OO@@@@OO@@@@@OO@@@OO@@++",
"++o@O$@@@OO@@@@#OO@@@@Oo#@@@@OO@@#OO@@++",
"++o#OO#@@OO@#@@#OO#@@##$@#@#@OO@#@O#@@++",
"##o#O#@@@OO##@@#O#@@@#OO@#@#@#O@#@O#@@++",
"+#o#O#@@@#O@#@@#O#@@@#OO@#@#@#O@#@O#@#++"
};
