/* XPM */
static char *_27c2429a7824947e7fec0762970fc82AP0xWtzUCbJBoylf[] = {
/* columns rows colors chars-per-pixel */
"40 40 2 1 ",
"  c #323C39",
". c #595652",
/* pixels */
"                                        ",
"                                        ",
"       .                                ",
"    .  .                                ",
"     . . .                         .    ",
"     . . .                   ..  . .    ",
"                              . .  .    ",
"                              . .  .    ",
"                                        ",
"                         .              ",
"                   ..  . .              ",
"            .       . .  .              ",
"      ..  . .       . .  .              ",
"       . .  .                           ",
"       . .  .                           ",
"                                        ",
"                                        ",
"  ..                     ..             ",
"   . .                    . .           ",
" . ..                   . ..            ",
" . ..                   . ..            ",
"           ..                     .     ",
"            . .                .  .     ",
"          . ..                  . . .   ",
"          . ..                  . . .   ",
"                                        ",
"                                        ",
"                                        ",
"                              ..        ",
"            .                  . .      ",
"         .  .                . ..       ",
"          . . .              . ..       ",
"          . . .                         ",
"                      .                 ",
"                   .  .                 ",
"    .               . . .           .   ",
" .  .               . . .        .  .   ",
"  . . .                           . . . ",
"  . . .                           . . . ",
"                                        "
};
