/* XPM */
static char *e5c48b0eba0e40199745d9999dd3455eTVhAxvOZPjrSZw9B[] = {
/* columns rows colors chars-per-pixel */
"40 40 104 2 ",
"   c #E35E37",
".  c #E65F38",
"X  c #AA4629",
"o  c #582415",
"O  c #E15D37",
"+  c #E45E37",
"@  c #D85934",
"#  c #512114",
"$  c #C55130",
"%  c #E55E37",
"&  c #732F1C",
"*  c #923C23",
"=  c #E75F38",
"-  c #D74318",
";  c #DA4419",
":  c #A13212",
">  c #531A09",
",  c #D54218",
"<  c #CC4017",
"1  c #4C1809",
"2  c #BA3A15",
"3  c #D94318",
"4  c #6D220C",
"5  c #8A2B10",
"6  c #DB4419",
"7  c #D64116",
"8  c #D94216",
"9  c #A03110",
"0  c #531908",
"q  c #D44016",
"w  c #D74116",
"e  c #CB3E15",
"r  c #4C1708",
"t  c #B93813",
"y  c #D84216",
"u  c #6C210B",
"i  c #8A2A0E",
"p  c #DA4216",
"a  c #B13816",
"s  c #B43916",
"d  c #842A10",
"f  c #431508",
"g  c #B03816",
"h  c #B13916",
"j  c #B23916",
"k  c #A83615",
"l  c #3E1407",
"z  c #993113",
"x  c #B33916",
"c  c #591C0B",
"v  c #71240E",
"b  c #441A0E",
"n  c #3A170D",
"m  c #2C120B",
"M  c #431A0E",
"N  c #36140A",
"B  c #3A160B",
"V  c #441B0F",
"C  c #421A0E",
"Z  c #2A120B",
"A  c #3E190E",
"S  c #3D170C",
"D  c #321209",
"F  c #30140C",
"G  c #36160C",
"H  c #441B0E",
"J  c #C55230",
"K  c #C65230",
"L  c #C75230",
"P  c #C85331",
"I  c #632918",
"U  c #7E341F",
"Y  c #C95331",
"T  c #933D24",
"R  c #4B1F12",
"E  c #C45130",
"W  c #DC4419",
"Q  c #6E220C",
"!  c #8B2B10",
"~  c #DC4519",
"^  c #A23312",
"/  c #541A09",
"(  c #D94418",
")  c #40190D",
"_  c #BB4D2E",
"`  c #441C11",
"'  c #AA462A",
"]  c #D94419",
"[  c #CE4017",
"{  c #4D1809",
"}  c #BB3A15",
"|  c #B43A16",
" . c #5A1D0B",
".. c #72250E",
"X. c #B53A16",
"o. c #852B11",
"O. c #451609",
"+. c #2D0F06",
"@. c #2E0F07",
"#. c #170803",
"$. c #1D0A04",
"%. c #220B05",
"&. c #110602",
"*. c white",
/* pixels */
"        . X o O                   + @ # $ %                   . & * =           ",
"- - - - ; : > , - - - - - - - - - - < 1 2 3 - - - - - - - - - ; 4 5 6 - - - - - ",
"7 7 7 7 8 9 0 q 7 7 7 7 7 7 7 7 7 w e r t y 7 7 7 7 7 7 7 7 7 8 u i p 7 7 7 7 7 ",
"a a a a s d f g h a a a j j a a a j k l z x a a a j j h a a a s c v s a a a a a ",
"b b b b b n m M b b b b N B V b b b C Z A b b b b S D M b b b b F G H b b b b b ",
"J J J J J K L J J J J P I U Y J J J K L K J J J P T R E J J J J L K J J J J J J ",
"3 3 3 3 3 3 3 3 3 3 3 W Q ! ~ 3 3 3 3 3 3 3 3 3 W ^ / - ( 3 3 3 3 3 3 3 3 3 3 3 ",
"7 7 7 7 7 7 7 7 7 7 7 8 u i p 7 7 7 7 7 7 7 7 7 8 9 0 q 7 7 7 7 7 7 7 7 7 7 7 7 ",
"a a a a a j j h a a a s c v s a a a h j j a a a s d f g h a a a j j a a a a a a ",
"b b b b b S D M b b b b F G H b b b C D ) b b b b n m M b b b b N B V b b b b b ",
"J J J J P T R E J J J J L K J J J K _ ` ' L J J J K L J J J J P I U Y J J J J J ",
"3 3 3 3 W ^ / - ( 3 3 3 3 3 3 3 3 ] [ { } ; 3 3 3 3 3 3 3 3 3 W Q ! ~ 3 3 3 3 3 ",
"7 7 7 7 8 9 0 q 7 7 7 7 7 7 7 7 7 w e r t y 7 7 7 7 7 7 7 7 7 8 u i p 7 7 7 7 7 ",
"a a a a s d f g h a a a j j a a a j k l z x a a a j j h a a a s c v s a a a a a ",
"b b b b b n m M b b b b N B V b b b C Z A b b b b S D M b b b b F G H b b b b b ",
"J J J J J K L J J J J P I U Y J J J K L K J J J P T R E J J J J L K J J J J J J ",
"3 3 3 3 3 3 3 3 3 3 3 W Q ! ~ 3 3 3 3 3 3 3 3 3 W ^ / - ( 3 3 3 3 3 3 3 3 3 3 3 ",
"7 7 7 7 7 7 7 7 7 7 7 8 u i p 7 7 7 7 7 7 7 7 7 8 9 0 q 7 7 7 7 7 7 7 7 7 7 7 7 ",
"a a a a a j j h a a a s c v s a a a h j j a a a s d f g h a a a j j a a a a a a ",
"b b b b b S D M b b b b F G H b b b C D ) b b b b n m M b b b b N B V b b b b b ",
"J J J J P T R E J J J J L K J J J K _ ` ' L J J J K L J J J J P I U Y J J J J J ",
"3 3 3 3 W ^ / - ( 3 3 3 3 3 3 3 3 ] [ { } ; 3 3 3 3 3 3 3 3 3 W Q ! ~ 3 3 3 3 3 ",
"7 7 7 7 8 9 0 q 7 7 7 7 7 7 7 7 7 w e r t y 7 7 7 7 7 7 7 7 7 8 u i p 7 7 7 7 7 ",
"a a a a s d f g h a a a j j a a a j k l z x a a a j j h a a a s c v s a a a a a ",
"b b b b b n m M b b b b N B V b b b C Z A b b b b S D M b b b b F G H b b b b b ",
"J J J J J K L J J J J P I U Y J J J K L K J J J P T R E J J J J L K J J J J J J ",
"3 3 3 3 3 3 3 3 3 3 3 W Q ! ~ 3 3 3 3 3 3 3 3 3 W ^ / - ( 3 3 3 3 3 3 3 3 3 3 3 ",
"7 7 7 7 7 7 7 7 7 7 7 8 u i p 7 7 7 7 7 7 7 7 7 8 9 0 q 7 7 7 7 7 7 7 7 7 7 7 7 ",
"a a a a a j j h a a a s c v s a a a h j j a a a s d f g h a a a j j a a a a a a ",
"b b b b b S D M b b b b F G H b b b C D ) b b b b n m M b b b b N B V b b b b b ",
"J J J J P T R E J J J J L K J J J K _ ` ' L J J J K L J J J J P I U Y J J J J J ",
"3 3 3 3 W ^ / - ( 3 3 3 3 3 3 3 3 ] [ { } ; 3 3 3 3 3 3 3 3 3 W Q ! ~ 3 3 3 3 3 ",
"7 7 7 7 8 9 0 q 7 7 7 7 7 7 7 7 7 w e r t y 7 7 7 7 7 7 7 7 7 8 u i p 7 7 7 7 7 ",
"a a a a s d f g h a a a j j a a a j k l z x a a a j j h a a a s c v s a a a a a ",
"b b b b b n m M b b b b N B V b b b C Z A b b b b S D M b b b b F G H b b b b b ",
"J J J J J K L J J J J P I U Y J J J K L K J J J P T R E J J J J L K J J J J J J ",
"3 3 3 3 3 3 3 3 3 3 3 W Q ! ~ 3 3 3 3 3 3 3 3 3 W ^ / - ( 3 3 3 3 3 3 3 3 3 3 3 ",
"7 7 7 7 7 7 7 7 7 7 7 8 u i p 7 7 7 7 7 7 7 7 7 8 9 0 q 7 7 7 7 7 7 7 7 7 7 7 7 ",
"j j j j j j j j j j j |  ...X.j j j j j j j j j | o.O.g j j j j j j j j j j j j ",
"+.+.+.+.+.+.+.+.+.+.+.@.#.$.@.+.+.+.+.+.+.+.+.+.@.%.&.+.+.+.+.+.+.+.+.+.+.+.+.+."
};
