/* XPM */
static char *_b47cd169af44b1e84274e12372f967c5PFJWH5d6MidiZhC[] = {
/* columns rows colors chars-per-pixel */
"40 40 251 2 ",
"   c #020302",
".  c #0C0100",
"X  c #000D04",
"o  c #01040B",
"O  c #060A0A",
"+  c #140201",
"@  c #1C0000",
"#  c #180808",
"$  c #021804",
"%  c #010B12",
"&  c #020418",
"*  c #1A0111",
"=  c #051618",
"-  c #161614",
";  c #230001",
":  c #2C0000",
">  c #240A08",
",  c #320000",
"<  c #3B0101",
"1  c #31090E",
"2  c #381702",
"3  c #2C0012",
"4  c #370814",
"5  c #291913",
"6  c #0C2D17",
"7  c #312A19",
"8  c #030724",
"9  c #131E22",
"0  c #0A142F",
"q  c #0B2229",
"w  c #1A2626",
"e  c #092636",
"r  c #162E35",
"t  c #19343B",
"y  c #11362E",
"u  c #242A2A",
"i  c #3B2833",
"p  c #263939",
"a  c #2D342D",
"s  c #450602",
"d  c #580502",
"f  c #4A1802",
"g  c #581704",
"h  c #490A17",
"j  c #5A091C",
"k  c #680504",
"l  c #740000",
"z  c #651907",
"x  c #68061A",
"c  c #720B1E",
"v  c #681516",
"b  c #771815",
"n  c #76130E",
"m  c #57271D",
"M  c #573517",
"N  c #4A2A05",
"B  c #622B03",
"V  c #6A3705",
"C  c #793506",
"Z  c #783717",
"A  c #6E2D14",
"S  c #481B27",
"D  c #791431",
"F  c #6D1627",
"G  c #563B26",
"H  c #4C2F34",
"J  c #682B39",
"K  c #6F302B",
"L  c #19403D",
"P  c #3A433C",
"I  c #5E471E",
"U  c #484635",
"Y  c #684830",
"T  c #765915",
"R  c #0A2844",
"E  c #1D3848",
"W  c #0E3250",
"Q  c #223E48",
"!  c #323749",
"~  c #2C3C51",
"^  c #252F48",
"/  c #183368",
"(  c #25376F",
")  c #563F48",
"_  c #713543",
"`  c #104559",
"'  c #2B4856",
"]  c #38525D",
"[  c #304752",
"{  c #1A4965",
"}  c #0C4A71",
"|  c #2E5270",
" . c #524D51",
".. c #665053",
"X. c #4F5668",
"o. c #675C64",
"O. c #58686B",
"+. c #567877",
"@. c #556F71",
"#. c #687474",
"$. c #787878",
"%. c #6F6D6C",
"&. c #B5060E",
"*. c #B90F18",
"=. c #843815",
"-. c #8D3112",
";. c #92182D",
":. c #BA1724",
">. c #AB1E36",
",. c #B01B2D",
"<. c #922B2E",
"1. c #AA282A",
"2. c #A62436",
"3. c #B62739",
"4. c #B7252B",
"5. c #911515",
"6. c #CC0B1A",
"7. c #D60A19",
"8. c #C7161B",
"9. c #DA1519",
"0. c #D90E0A",
"q. c #E9010C",
"w. c #E50414",
"e. c #F50A16",
"r. c #EC111D",
"t. c #CB1429",
"y. c #D51425",
"u. c #C61A34",
"i. c #D71029",
"p. c #E61827",
"a. c #F11025",
"s. c #DB222E",
"d. c #C52331",
"f. c #CD2C32",
"g. c #8C430F",
"h. c #9A6000",
"j. c #864C24",
"k. c #925231",
"l. c #A25D3E",
"z. c #8D6933",
"x. c #B96C3F",
"c. c #882D4A",
"v. c #933349",
"b. c #A22F49",
"n. c #8D794D",
"m. c #95724D",
"M. c #B46946",
"N. c #B57354",
"B. c #BA6D7F",
"V. c #9B5556",
"C. c #C67A53",
"Z. c #D77751",
"A. c #7B8672",
"S. c #A88028",
"D. c #C2901F",
"F. c #898C79",
"G. c #B5966E",
"H. c #A29E58",
"J. c #D09256",
"K. c #ED9357",
"L. c #F0AB5F",
"P. c #EBA352",
"I. c #C4996B",
"U. c #D79A67",
"Y. c #D0906D",
"T. c #E89E69",
"R. c #F79964",
"E. c #E99A75",
"W. c #FA9E74",
"Q. c #F38E64",
"!. c #DAA569",
"~. c #D0A96F",
"^. c #E8A867",
"/. c #F5A368",
"(. c #E9AA7A",
"). c #FCA976",
"_. c #EEBC7E",
"`. c #F9B57A",
"'. c #F1B769",
"]. c #DAAB5B",
"[. c #B3C064",
"{. c #F0CA78",
"}. c #C5D17D",
"|. c #1D4688",
" X c #5F7580",
".X c #767C9E",
"XX c #907F8F",
"oX c #778791",
"OX c #7A9399",
"+X c #6A8C8E",
"@X c #5F8D8B",
"#X c #8D918B",
"$X c #AE9796",
"%X c #ABAD89",
"&X c #86A9A8",
"*X c #97A9A7",
"=X c #88ABB6",
"-X c #98B3BB",
";X c #93B8AF",
":X c #B7ADA7",
">X c #96B39D",
",X c #CBB790",
"<X c #F8B586",
"1X c #EEB28A",
"2X c #CBB3B6",
"3X c #CCB3B6",
"4X c #EDB6B1",
"5X c #C48695",
"6X c #A7C0BA",
"7X c #AFC68E",
"8X c #FFC697",
"9X c #FAC583",
"0X c #CFCBA6",
"qX c #FFD9A9",
"wX c #F9E0A5",
"eX c #FFE8BC",
"rX c #B2BCCC",
"tX c #92B3C2",
"yX c #CEBECA",
"uX c #EFBDD6",
"iX c #99C2C4",
"pX c #A9C8CE",
"aX c #B6CDD2",
"sX c #D9C3C5",
"dX c #CBCED1",
"fX c #E5D5D5",
"gX c #EBC5CD",
"hX c #DEE3DF",
"jX c #E7E5DC",
"kX c #F1F2D1",
"lX c #D4D6E3",
"zX c #ECDAE8",
"xX c #DAE8E6",
"cX c #E5EAE6",
"vX c #F3EBE9",
"bX c #FCFEEC",
"nX c #F8F9EA",
"mX c #E9EDF5",
"MX c #FBEEFC",
"NX c #F9ECF9",
"BX c #EDFCF4",
"VX c #EBF7FA",
"CX c #FDF4F5",
"ZX c #F3FEF5",
"AX c #FEFDF4",
"SX c #F4F5FA",
"DX c #FEF5FD",
"FX c #F4FDFC",
"GX c #FEFEFE",
"HX c #F3F4F4",
"JX c #EEF6ED",
/* pixels */
"GXCXGXDXDXGXDXDXCXNXDX#X& & & o + + . . @ + . 5 CXAXJXAXAXGXDXGXGXGXGXGXGXGXGXGX",
"AXGXGXGXGXVXDXhXyXyXsXV.4 3 3 4 , < < < h h 4 S 2XsXGXJXGXGXSXGXGXGXGXGXGXGXGXGX",
"nXAXAXJXZXGXAX..@ ; , d <.b.2.2.b.3.>.>.>.2.;.<.@ * SXGXFXFXGXFXGXGXGXGXGXGXGXGX",
"AXAXZXZXAX*XF.Y f g k 5.3.d.:.u.i.t.i.i.t.u.u.1.: + NXSXFXFXFXGXGXGXGXGXGXGXGXGX",
"FXBXGXDXDX_ : D <.3.4.d.8.&.t.y.i.t.y.9.9.9.8.1., 1 CXDXGXvXAXnXAXGXGXGXGXGXGXGX",
"FXGXDX%...J F ;.3.:.6.9.7.a.p.7.i.y.7.0.0.0.8.1.v J )  .DXGXCXAXGXGXGXGXGXGXGXGX",
"BXBXAXH ; F V.:.8.7.a.e.e.e.e.w.7.i.6.7.r.9.:.<.v.J * o lXDXGXGXGXGXGXGXGXGXGXGX",
"ZXGXAXH < x 1.u.y.p.e.q.e.e.e.p.i.i.i.a.p.&.l d d s @ * DXGXCXCXGXGXGXGXGXGXGXGX",
"GXhXsXJ s ;.,.i.7.a.a.q.r.9.7.y.6.i.a.w.s.*.l l k d s h :XjXCXCXGXGXGXGXGXGXGXGX",
"DXi # J v.b.3.3.i.t.i.s.f.d.4.4.f.&.6.s.4.1.1.;.1.<.k.K @ . gXDXCXGXGXGXGXGXGXGX",
"MXi * H S h m j b n 5.n k k v v v v b k z A m A v A v m #   zXDXGXGXGXGXGXGXGXGX",
"MXi * . + ; ; @ ; : , : , , : ; ; > < , ; ; @ : : , ; @ .   lXDXGXGXGXGXGXGXGXGX",
"DX$X$Xa @ 2 < k.N.=.d -.M.=.k Z N.Z s B N.l.f M N.k., @ $X$XCXGXGXGXGXGXGXGXGXGX",
"GXGXAXH . Y A G.8XM.C x.<XM.Z l.1XG.T j.<X^.C j.1X4X> . CXCXDXGXGXGXGXGXGXGXGXGX",
"GXGXGXU . @ @ m.(.U.Y.8XkX8XI.~.1X1XqX8X)./.K.C.5 5 . # NXGXFXVXFXDXGXGXGXGXGXDX",
"GXGXVX .- > @ z.1X!.(.8XqX8X1X1X1X1XeXwX^.R.Q.Y.@   > 3 uXvXlXxXhXcXvXZXGXGXGXGX",
"CXGXFXFXDX..@ m.`.U.W.j.: j.<X/.<XC.@ f P.P.).E.@ ; c.b.b.c.*   o   :XAXGXGXZXZX",
"AXGXVXFXDX .+ S.{.T.1Xl.2 z.(.L.).C.2 I J.P./.E.; ; j D D D h 1 1 4 $X2XvXAXAXAX",
"bXbXAXAXnX .. ..(.P.`.U.m.$X_.'.{.~.%.H.{.'./.J.#   > @ + @ c.v.b.;.v._ 4XNXNXCX",
"ZXnXbXAXbXU   H.{.L.^.U.G.G.^.^.~.I.G.].!.].`.U.    F.A.$   j x c x x j XX5XuXNX",
"VXFXGXFXDX... n.<XR.Q.).`.(.K.R.E.E.`./.U.^.`.~.+ w AXZX6 X . , ; : ; > S H 3XCX",
"VXFXGXCXMX .. 2 f C -.Z.`.)./.).).).).Q.k.j.N f $   vXGXpXlXdXyXsXsXsX2XgXsXCXCX",
"FXVXcXbXDXo.-   . N Z M.E.(.^.(.!.^.E.C.-.B + . # u DXDXDXVXGXGXBXZXFXFXGXAXAXGX",
"FXAXAXbXDXSXmX#.X i M Y g.z < : : f =.=.A m   9 FXGXDXDXGXGXZXFXBXFXBXZXZXFXFXGX",
"AXCXAXFXSXdXaX| 0 E  .M C z , s , f C I ) ! 0 e rXyXDXSXGXJXbXAXGXGXGXAXGXGXGXGX",
"AXAXbXAXFX] % W |.W ! G V V Z V =.C V N ! { { ' & 0 DXDXZXbXbXAXAXGXGXGXGXGXGXGX",
"nXAXbX%X#X[ q y e E [ Y S.h.=.-.C g.S.S.L { 6 $ e R .X.XcXbXAXDXGXGXGXGXGXDXGXDX",
"GXAXbX7 & ` ] = % y [ A.wXH.V V B z.9X[.{ ` X $ { | & o nXAXGXDXDXGXGXGXGXGXGXGX",
"DXMXbXU o W ( R 8 R { | O.%.#XA.F.A. .O.|./ % = } } = X jXAXDXDXDXGXGXGXGXGXGXGX",
"DXDXbXP o ^ X.0 & R } ` W @.pX;XiX+Xp [ |./ & o { W % $ jXAXDXDXGXGXGXGXGXGXGXFX",
"DXGXAXP   $.4XM X q ` @X0X%X>X=XOX;X[.H.( ( o 5 ,X%X.   cXZXFXFXGXGXGXGXGXGXGXGX",
"DXGXZXO.u %.~.M   y ` A.7X%X;XtX=X>X[.H.~ / & # G.I.S i HXGXFXFXGXGXGXGXGXGXGXGX",
"GXGXGXSXGXP     o r ' y L A.OX=XtX+X6 6 ] W %     . DXDXGXAXGXGXGXGXGXGXGXGXGXGX",
"GXGXGXFXSX*X#.r o r E +.@.@XiXOX=XOXA.+.' Q o = #.$.SXDXAXAXGXGXGXGXGXGXGXGXGXGX",
"GXGXGXGXFXFXVXO.% r t +XpXpXiXiX-XpXaX&XE E   a BXDXDXGXGXAXGXGXGXGXGXGXGXGXGXGX",
"SXGXGXGXGXGXFXO.  [ oX#XpXA.` { p O.6X&XoX+.o = FXGXGXDXAXAXSXGXGXGXGXGXGXGXGXGX",
"GXGXGXSXFXVXGXO.o O.aX*X;X] = o   p *X*X-X#X  w JXHXDXGXGXAXGXGXGXGXGXGXGXGXGXGX",
"GXHXGXGXGXGXGX .  - O % = #.xXlXcX*XX o q q   u GXDXGXDXAXGXGXDXGXGXGXGXGXGXGXGX",
"GXSXGXGXSXGXSX$.w u - u = $.FXGXGXaX9 u 9 = u p FXGXDXCXGXGXGXGXGXGXGXGXGXGXGXGX",
"DXGXGXGXGXGXGXSXDXCXGXGXGXGXGXZXGXJXZXAXBXAXZXGXCXGXDXGXGXAXFXGXGXGXGXGXGXGXGXGX"
};
