/* XPM */
static char *fd6d7c81073b461ae3208c96db082faeBzrNWtAu3rxRw1AI[] = {
/* columns rows colors chars-per-pixel */
"40 40 203 2 ",
"   c #23351F",
".  c #323E28",
"X  c #2E4720",
"o  c #3B4733",
"O  c #35482A",
"+  c #4B523F",
"@  c #4F593E",
"#  c #475336",
"$  c #595C3F",
"%  c #565745",
"&  c #505C44",
"*  c #525C49",
"=  c #5B5F4F",
"-  c #5B5D45",
";  c #5C5C54",
":  c #4B5646",
">  c #546344",
",  c #5A6847",
"<  c #53604B",
"1  c #5B654B",
"2  c #536849",
"3  c #5C6B4D",
"4  c #5B744D",
"5  c #5B6753",
"6  c #5E6850",
"7  c #5F675A",
"8  c #5F6E59",
"9  c #606D4F",
"0  c #616B53",
"q  c #616358",
"w  c #646C5C",
"e  c #696D5C",
"r  c #656559",
"t  c #697257",
"y  c #64715A",
"u  c #6B755D",
"i  c #6B7B5D",
"p  c #71765F",
"a  c #686560",
"s  c #616B60",
"d  c #6C6F64",
"f  c #716E69",
"g  c #6B7262",
"h  c #6D7B63",
"j  c #6E7A6A",
"k  c #667163",
"l  c #717466",
"z  c #737C64",
"x  c #747569",
"c  c #747B6A",
"v  c #7B7D6D",
"b  c #7C7D74",
"n  c #817C76",
"m  c #6C825E",
"M  c #6D8062",
"N  c #778166",
"B  c #74836C",
"V  c #7B846D",
"C  c #7B8B6B",
"Z  c #788769",
"A  c #768472",
"S  c #7C8374",
"D  c #7E8A76",
"F  c #7D857B",
"G  c #7D8B7B",
"H  c #7F9773",
"J  c #828B6D",
"K  c #80836A",
"L  c #818373",
"P  c #838C74",
"I  c #84847A",
"U  c #838C7C",
"Y  c #898C7E",
"T  c #88847B",
"R  c #839276",
"E  c #85927C",
"W  c #8B957D",
"Q  c #879A7C",
"!  c #919475",
"~  c #828E80",
"^  c #8C8D83",
"/  c #928F86",
"(  c #869482",
")  c #8C9482",
"_  c #8C9B82",
"`  c #8D9489",
"'  c #8E998B",
"]  c #929685",
"[  c #929B84",
"{  c #94958B",
"}  c #9A978E",
"|  c #949C8B",
" . c #999C8D",
".. c #989A85",
"X. c #959D92",
"o. c #9B9D93",
"O. c #9C9794",
"+. c #A09D94",
"@. c #A29F9A",
"#. c #94A385",
"$. c #95A28B",
"%. c #9AA28D",
"&. c #9CA88D",
"*. c #93A889",
"=. c #9CB28E",
"-. c #9CA494",
";. c #9CAA94",
":. c #9DA39A",
">. c #9EAA9A",
",. c #96A191",
"<. c #9EB193",
"1. c #A1A496",
"2. c #A3AB95",
"3. c #A8AB90",
"4. c #A3A49A",
"5. c #A9A69C",
"6. c #A4AB9C",
"7. c #A9AC9E",
"8. c #A7B096",
"9. c #A5B29B",
"0. c #AAB29C",
"q. c #AABA9D",
"w. c #B3BA9B",
"e. c #B9BC9F",
"r. c #B0B29A",
"t. c #A6A6A1",
"y. c #A5ACA2",
"u. c #AAADA2",
"i. c #A8AFA8",
"p. c #B2AFA6",
"a. c #A5B4A0",
"s. c #ACB3A4",
"d. c #A7B9A1",
"f. c #AEBBA4",
"g. c #ADB1AA",
"h. c #ADBAA9",
"j. c #B2B4A6",
"k. c #B3BCA4",
"l. c #B4B5AB",
"z. c #B4BCAB",
"x. c #BABDAD",
"c. c #BAB8A7",
"v. c #B6B7B2",
"b. c #B9B6B1",
"n. c #B5BCB3",
"m. c #BBBCB3",
"M. c #B5B8B9",
"N. c #BDBDB9",
"B. c #C1BCB5",
"V. c #C2BEB9",
"C. c #AFC3A2",
"Z. c #AEC0AA",
"A. c #B5C2A3",
"S. c #B9C4A7",
"D. c #B5C2AC",
"F. c #BBC3AD",
"G. c #BAC8AD",
"H. c #B8C9A8",
"J. c #B6C3B2",
"K. c #BCC3B3",
"L. c #BDCBB4",
"P. c #BDC3B9",
"I. c #BECABA",
"U. c #BFD2B5",
"Y. c #C0CBAE",
"T. c #C2C5AA",
"R. c #C1C4B5",
"E. c #C2CBB5",
"W. c #C3C5BB",
"Q. c #C9C4BB",
"!. c #C5CBBC",
"~. c #CACBBD",
"^. c #C4D2B5",
"/. c #C5D1BB",
"(. c #CBD3BD",
"). c #D1D4BC",
"_. c #D0D9BE",
"`. c #BEC2C1",
"'. c #C4C6C1",
"]. c #C5CBC2",
"[. c #CCCDC3",
"{. c #C7C9C8",
"}. c #CDCFC9",
"|. c #D0CDC4",
" X c #D3CFC9",
".X c #C6D2C0",
"XX c #CDD2C4",
"oX c #CDD8C3",
"OX c #CED2CA",
"+X c #CFD9CE",
"@X c #D2D4C6",
"#X c #D2DAC5",
"$X c #D2D2C9",
"%X c #D2D6CB",
"&X c #D3D5CB",
"*X c #D4DBCA",
"=X c #DADBCF",
"-X c #DBDAD1",
";X c #D6D7D3",
":X c #DBE2CC",
">X c #DEE3D3",
",X c #DEEAD4",
"<X c #E0E0D8",
/* pixels */
"j ` ~ G j j :.{ +.f n b.c.V.B.B.B.M.`.f r ..P ] l e 1. ...K J e.c.m.V.p.B.N.m.x ",
">.I.J.J.y.6.+X!.>X5.+. XV.Q.V. XV.`.OX{ Y R.F.W.4.7.@XR.(.T.w.).~.|. X'.|.}.}.^ ",
">.I.P.P.s.7.%X!.|.Y T ~.|.Q.B. X{.'.;X` W ^.x.R.5.s.*XR.).r.! e.Q.R.W.R.[.W.!.Y ",
":.J.J.n.6.>.XXK.@XW d c.@X>X@X).'.P.{.` W E.k.k.-.5.[.Q.T.n $ 3.*XXX$XXX*XR.K.F ",
"-.P.m.L.u.7.XXL.Q.W @ v ! %.&.%.:.:.h.v D E.F.R.7.u.OX[.).K - 3.0.4.6.6.4.( G o ",
"o.K.m.x.6.2.~.K.^.0.e P ] #.r.3.>.:.h.z V Y.k.R.7.i.}.m.|.7.K %.2.1.u.7.s.;.;.* ",
"4.R.K.K.7.5.oXE.T.8.t &.A.A.Y.Y.I.K./.R J Y.A.F.u.u.$XN.}.R.1.r.0.j.F.z.L.L.L.C ",
"1.R.x.F.7.2.(.Y._.&.# ! S.A.H.A.D.h.G.V C S.k.Y.u.X.{.'.[.u.+.R.m.L.E.z.F.K.L.j ",
"4.R.R.E.9.2.<X(.! i , u J S.A.^.E.F.^.i > Y.Y.E.s.t.;X`.+X{.o.[.x.R.%XK.$.R 9.E ",
"u $...%.P V 8.#.Z @ # 9 , 9 > Z ;._ &.z , C #.;.b b i.:.g.` x o.| ) W V S B E 5 ",
"u 8.9.0.;.#.f.9._ t t W J V 1 u D B R i , 9 #.,.y.>.i.:.4.w g $.| ( x w ( U E w ",
"R G.^.G.G.S.^.G.^.8.8.(./.:Xf.[ J.L./.Q i &.F.D.I.P.n.n.N.c ;.%X~.#Xj. .W.F.L.s.",
"C C.A.9.q.C.f.f.F.$.-.R.K.XX7.U Z.J.U.( & H.A.L.i.n.n.n.].u ,.~.K.|.7.^ x.h.l.s.",
"m =.C.<.<.C.U.L.L.[ s.>X!.!.i.y.P.h.J.&.3 ^.9.U..X].+XP.].k 2.(.~.}.5.] W.!.W.h.",
"X 4 H m 2 h _ $.9.b X.%Xv.v.t.4.`.J.Z.;.1 &.H | ,.' :.F  .& W ~.Q.Q.4.{ R.W.Q.u.",
"i *.U.<.h H >.0.s.Y 6.XXm.;Xv.{ J.`.J.;.h ;.z.a.a.y.'.o.z.l %.#XQ.[.l.1.B.v.R.h.",
"' +X].!.~.$X~.~.&X5.p.|.Q.*Xp.6.J.n.!.-.5.#X~.~.].=X'.{.<X/ O.|.~.c.x.3.k.x.K.6.",
"G ].P.P.R.[.B.B.V.} 5.~.Q.&X7.o.L.z.K. .4.$X!.W.v.W.b.V. X^ O.&XT._.T.V ..F.E.6.",
"' +XOX%XOX-X X X-Xp.b.-X}.=Xl.7.~.K.W.1.7.=X$X{.}.-X$X$X;X} t.-XR.#Xr.1 N 0.oXk.",
"s :.X.:.{ o.O.+.+.n r T b I l d  .| -.g c 6.4.o.} o.4.o.@.a f +.z p l > 0 z ) u ",
"k X.` ' S ) } } p.T n } { 1.4.1. .X.-.g e o. . .b I { { @.b b +.] 0 u z 3 y ;.y ",
"y..XP.I.t.x.'.|.~.5.} |.[.}.&X[.oXXX%X .] !.R.K.p.u.[.{.-XW.V.;X:Xk.x.k.[ 2.,XE ",
";.J.h.z.} 7.B.Q.Q.5./ |.Q.L.!.K.XX/.!.( ( !.L.x.6.1.[.R.'.l.p.[.z.E.oXoX(.L.oXu ",
";.J.z.K.-.0.Q.~.).p.} &X}.W.OX~.K.z.h.v Y ~.K.l.t.1. XW.Q.l.l.=XE.*XF.F.*XL.oX| ",
";.D.h.E.7.s.R.@X$X1.n j.g.i.g.o.9.2.y 5 | k.K.j.4.5.@XK.*Xx./ j.h.s.9.;.h.z.f.h ",
";.D.D./.6.9.x.x.@X1.v 5.-.:.i.>.$.-.~ + 0 B s.~.s.u.$Xm.W.i.Y 1.) %.s.;.;.$.*.5 ",
"_ d.Z.E.2.S.*X@XW.1.^ [.W..X+X].E.E./.h S | h.K.6.-.#XL.W.z.6.z.z.h.P.I..X/./.A ",
"_ C.D.C.V ..Q.E.K.} { W.N.m.l.s.z.a.L.N ) !.F.z.7.6.$X!.m.5.1.7.P.a.h.h.D.J.I.B ",
"Q G.^.H.D _ R.#X~.1. .!.K.`.P.].L.G.oXE h /.D.#Xs.s.*XOX!.s.l.R.I.I./.h.>.*.d.G ",
"O Z R R 1 6 J  .Y q d 1.:.g.:.>.9.>.9.h . ) c ( e g ) ) { l Y a.;.>.;.( ( A G 8 ",
"2 #._ #.P z e P } d S s.6.y.F F $._ $.h * ;._ ( _ ) | [ ) = l 6.>.6.( G a.;.*.A ",
"Q U.q.L.(.F.2.x.*X1.t.OX'.OXi.a./.D.^.&.R L./.E.E.!.K.l.K.b  .>XI.+Xh.;.`.J.J.h.",
"B d.h.Z.D.s.k.x.R.O.4.}.'.}.i.u.F.k.Y.J 9 2.K.f.z.F.j.x.R.J ] ~.Q.|.b.-.P.K.J.y.",
"H h.Z.f.K.z.R.[.{.1.t.}.V.'.y.5.Y.k.Y.J 0 0./.L.R.!.F.F.T.n ..).Q.|.l.o.P.z.K.a.",
"  y A ) 4.-.1.-.O.b O.$X}.;Xi.t.H.w.S.z & W %.{ Y | ] ] ..% l c.Q.&Xb.o.K.n.P.h.",
"M a.h.s.i.] x q l ; I W.'.{.u.:.E.G.(...V 7.7.-.o.6.5.1.1.= V Q.Q.}.l.o.P.l.J.g.",
"' .X/.I..X[.W.x.l./ @. X'.$Xv.i.k.k.!.;.-.oX}.}.XX=X$X~.R.x Y [.[.[.g.1.].L.I.h.",
"' .X.X!.XX~.~.B.Q.O.4.[.W.[.t.:.E.D.L.%.-.XXQ.'.W.{.'.[.[.I  .$XB.B.5.O.I.l.J.a.",
"U !.OX~.$X.X[.B.|.5.u.=X}.;Xs.-.I.S.D.| u.OXW.'.P.'.W.{.;X{ 1.=X=X-Xm.6.!.h.P.I.",
"S J.J.h.l.l.B.b.Q.Y b X.^ ` d 7 < < s 5 ` !.v.N.N.N.g.b.m.d d { ^ { l * w : 5 w "
};
